HIERARCHY
ROOT Hips
{
	OFFSET	0.00	0.00	0.00
	CHANNELS 6 Xposition Yposition Zposition Zrotation Xrotation Yrotation
	JOINT LeftUpLeg
	{
		OFFSET	 0.126116	-0.065224	 0.014019
		CHANNELS 3 Zrotation Xrotation Yrotation
		JOINT LeftLeg
		{
			OFFSET	 0.000000	 0.569914	 0.000000
			CHANNELS 3 Zrotation Xrotation Yrotation
			JOINT LeftFoot
			{
				OFFSET	 0.000000	 0.544423	 0.000000
				CHANNELS 3 Zrotation Xrotation Yrotation
				JOINT LeftToeBase
				{
					OFFSET	 0.000000	 0.207117	 0.000000
					CHANNELS 3 Zrotation Xrotation Yrotation
					End Site
					{
						OFFSET	 0.000000	 0.207117	 0.000000
					}
				}
			}
		}
	}
	JOINT RightUpLeg
	{
		OFFSET	-0.124023	-0.065224	 0.008373
		CHANNELS 3 Zrotation Xrotation Yrotation
		JOINT RightLeg
		{
			OFFSET	 0.000000	 0.570047	 0.000000
			CHANNELS 3 Zrotation Xrotation Yrotation
			JOINT RightFoot
			{
				OFFSET	 0.000000	 0.544354	 0.000000
				CHANNELS 3 Zrotation Xrotation Yrotation
				JOINT RightToeBase
				{
					OFFSET	 0.000000	 0.207540	 0.000000
					CHANNELS 3 Zrotation Xrotation Yrotation
					End Site
					{
						OFFSET	 0.000000	 0.207540	 0.000000
					}
				}
			}
		}
	}
	JOINT Spine
	{
		OFFSET	 0.000184	 0.117403	 0.007763
		CHANNELS 3 Zrotation Xrotation Yrotation
		JOINT Spine1
		{
			OFFSET	 0.000000	 0.137269	 0.000000
			CHANNELS 3 Zrotation Xrotation Yrotation
			JOINT Spine2
			{
				OFFSET	 0.000000	 0.156879	 0.000000
				CHANNELS 3 Zrotation Xrotation Yrotation
				JOINT LeftShoulder
				{
					OFFSET	 0.080501	 0.160143	 0.002496
					CHANNELS 3 Zrotation Xrotation Yrotation
					JOINT LeftArm
					{
						OFFSET	 0.000000	 0.164363	 0.000000
						CHANNELS 3 Zrotation Xrotation Yrotation
						JOINT LeftForeArm
						{
							OFFSET	 0.000000	 0.364576	 0.000000
							CHANNELS 3 Zrotation Xrotation Yrotation
							JOINT LeftHand
							{
								OFFSET	 0.000000	 0.360812	 0.000000
								CHANNELS 3 Zrotation Xrotation Yrotation
								JOINT LeftHandIndex1
								{
									OFFSET	 0.000000	 0.086006	 0.000000
									CHANNELS 3 Zrotation Xrotation Yrotation
									JOINT LeftHandIndex2
									{
										OFFSET	 0.000000	 0.047237	 0.000000
										CHANNELS 3 Zrotation Xrotation Yrotation
										JOINT LeftHandIndex3
										{
											OFFSET	-0.004284	 0.038165	 0.000551
											CHANNELS 3 Zrotation Xrotation Yrotation
											End Site
											{
												OFFSET	-0.004284	 0.038165	 0.000551
											}
										}
									}
								}
							}
						}
					}
				}
				JOINT Neck
				{
					OFFSET	 0.000000	 0.176489	 0.000000
					CHANNELS 3 Zrotation Xrotation Yrotation
					JOINT Head
					{
						OFFSET	 0.000000	 0.077941	 0.001747
						CHANNELS 3 Zrotation Xrotation Yrotation
						End Site
						{
							OFFSET	 0.000000	 0.077941	 0.001747
						}
					}
				}
				JOINT RightShoulder
				{
					OFFSET	-0.080363	 0.159706	-0.000306
					CHANNELS 3 Zrotation Xrotation Yrotation
					JOINT RightArm
					{
						OFFSET	 0.000000	 0.164196	 0.000000
						CHANNELS 3 Zrotation Xrotation Yrotation
						JOINT RightForeArm
						{
							OFFSET	 0.000000	 0.365611	 0.000000
							CHANNELS 3 Zrotation Xrotation Yrotation
							JOINT RightHand
							{
								OFFSET	 0.000000	 0.360648	 0.000000
								CHANNELS 3 Zrotation Xrotation Yrotation
								JOINT RightHandIndex1
								{
									OFFSET	 0.000000	 0.069977	 0.000000
									CHANNELS 3 Zrotation Xrotation Yrotation
									JOINT RightHandIndex2
									{
										OFFSET	 0.000000	 0.052305	 0.000000
										CHANNELS 3 Zrotation Xrotation Yrotation
										JOINT RightHandIndex3
										{
											OFFSET	 0.009002	 0.042196	 0.000782
											CHANNELS 3 Zrotation Xrotation Yrotation
											End Site
											{
												OFFSET	 0.009002	 0.042196	 0.000782
											}
										}
									}
								}
							}
						}
					}
				}
			}
		}
	}
}
MOTION
Frames:    8
Frame Time: 0.03333334
-0.046001	 1.234513	-1.248667	-3.214774	 1.364409	-174.131700	 165.896400	 6.386213	 13.390310	 4.089309	-28.180470	 6.033869	 5.717955	 76.503520	 1.925024	 1.515273	 31.277480	-2.813067	-175.705600	 27.706500	-12.715670	-5.875129	-53.637520	 6.278224	 13.854940	 70.894150	-9.498691	-1.669834	 33.152890	 2.886837	-1.439354	 8.587561	-2.798934	 0.392467	 3.549159	-0.799105	-0.233810	-3.946183	-0.749680	-121.357900	 7.460747	 94.053970	 19.114210	 47.849480	-2.832048	 16.216020	-0.827917	 0.034090	 12.973860	-36.090920	 6.715926	 4.628981	 18.872290	-1.657529	-5.863910	 21.484680	 2.375197	 5.332122	 4.353936	-0.168786	-0.169052	-5.012749	-0.141569	-2.096338	-2.050425	-3.141222	 118.418700	-0.035220	-90.816060	 9.348359	 53.588470	-13.070800	-13.644920	-0.531783	-0.005049	-8.367919	-21.208440	-13.815610	-2.420688	 25.862910	 1.326993	 15.822100	 44.854930	-11.793280	-8.529519	 23.860400	-1.219001
-0.045859	 1.234252	-1.255380	-3.248713	 1.233727	-174.012200	 165.861200	 6.215805	 13.502760	 4.092993	-28.302220	 6.124268	 6.469174	 76.691000	 1.233618	 1.523488	 31.379540	-2.816940	-175.980500	 28.683370	-12.362360	-5.917892	-53.648070	 6.334608	 16.109760	 71.968710	-11.166730	-1.673416	 33.195690	 2.888630	-1.436597	 8.502672	-2.898652	 0.369506	 3.548109	-0.833585	-0.227679	-3.969076	-0.753334	-121.355200	 7.562889	 94.104700	 18.451530	 47.605670	-2.122937	 18.061890	-0.919149	 0.062208	 12.692350	-37.158400	 6.744193	 4.642179	 18.915580	-1.664570	-5.863794	 21.522710	 2.379395	 5.333756	 4.392185	-0.168091	-0.170921	-5.021436	-0.132976	-2.064725	-2.094733	-3.145758	 118.404500	-0.095483	-90.787780	 10.738690	 53.505240	-14.001190	-14.719780	-0.572762	-0.015396	-7.738962	-21.722450	-14.148090	-2.372904	 25.507000	 1.301485	 15.732700	 44.507640	-11.655270	-8.530804	 23.503140	-1.195217
-0.045620	 1.233488	-1.266858	-3.295831	 1.048952	-173.844600	 165.834400	 5.850195	 13.611520	 4.115366	-28.432580	 6.299353	 7.673761	 77.070110	 0.127485	 1.535123	 31.523750	-2.822449	-176.417200	 30.284890	-11.950160	-5.843971	-53.554280	 6.576495	 19.601550	 73.140980	-13.789080	-1.678483	 33.256170	 2.891171	-1.432729	 8.383502	-3.047518	 0.345823	 3.575985	-0.882585	-0.223216	-4.015100	-0.766847	-121.351600	 7.707249	 94.176410	 17.938300	 47.132400	-1.450813	 20.444880	-1.035537	 0.102891	 12.217330	-38.590360	 6.729609	 4.660842	 18.976730	-1.674541	-5.863636	 21.576440	 2.385327	 5.336062	 4.446227	-0.167111	-0.173559	-5.033710	-0.120835	-2.020048	-2.157186	-3.152119	 118.384500	-0.180608	-90.747860	 12.622300	 53.389320	-15.250050	-15.956990	-0.619774	-0.028238	-7.124272	-22.464110	-14.648890	-2.305913	 25.004010	 1.266124	 15.609250	 44.016590	-11.462910	-8.532342	 22.998270	-1.161730
-0.045263	 1.232110	-1.284061	-3.353189	 0.816234	-173.636000	 165.842400	 5.203180	 13.735940	 4.128302	-28.507780	 6.511484	 9.423066	 77.661080	-1.477184	 1.549716	 31.704030	-2.829396	-177.066100	 32.521600	-11.350500	-5.752481	-53.122720	 6.861108	 24.133210	 74.023280	-17.195620	-1.684827	 33.331780	 2.894359	-1.427904	 8.232376	-3.245983	 0.329536	 3.653539	-0.855606	-0.230394	-4.092032	-0.885553	-121.347400	 7.887701	 94.266040	 17.895190	 46.357260	-1.078471	 23.092320	-1.162711	 0.153656	 11.506640	-40.262410	 6.619567	 4.684197	 19.053180	-1.687040	-5.863446	 21.643600	 2.392745	 5.338945	 4.513784	-0.165889	-0.176854	-5.049054	-0.105658	-1.964196	-2.235371	-3.160009	 118.359600	-0.287071	-90.697990	 14.964890	 53.224670	-16.799360	-17.237370	-0.668007	-0.042701	-6.679338	-23.401250	-15.320260	-2.223008	 24.375030	 1.223017	 15.459490	 43.402180	-11.226640	-8.533807	 22.366970	-1.120051
-0.044749	 1.229976	-1.308384	-3.420518	 0.531846	-173.383900	 165.919500	 4.159226	 13.869540	 4.113865	-28.423800	 6.755414	 11.927160	 78.465150	-3.778514	 1.567522	 31.923090	-2.837929	-178.045100	 35.337830	-10.488410	-5.509333	-51.931930	 7.332439	 29.148340	 74.285590	-20.833880	-1.692549	 33.423650	 2.898249	-1.421734	 8.048559	-3.502498	 0.326166	 3.791657	-0.920045	-0.240340	-4.206560	-0.948819	-121.342700	 8.106963	 94.374990	 18.664890	 45.179380	-1.257258	 25.693600	-1.285215	 0.209254	 10.600950	-42.142280	 6.353398	 4.712614	 19.146050	-1.702279	-5.863228	 21.725210	 2.401764	 5.342446	 4.595868	-0.164409	-0.180851	-5.067699	-0.087219	-1.896324	-2.330362	-3.169496	 118.329500	-0.416447	-90.637440	 17.740060	 52.992200	-18.619620	-18.422880	-0.712437	-0.056952	-6.554525	-24.535660	-16.194310	-2.123490	 23.610550	 1.172249	 15.284140	 42.654890	-10.945610	-8.534913	 21.599760	-1.069672
-0.044035	 1.226938	-1.341084	-3.497961	 0.188389	-173.082700	 166.112400	 2.588312	 14.010800	 4.043691	-28.013830	 7.024732	 15.469520	 79.430800	-7.049953	 1.589042	 32.186520	-2.848324	-179.533700	 38.444930	-9.145197	-5.006966	-49.253420	 8.095190	 33.484390	 73.644830	-23.565260	-1.701856	 33.534130	 2.902952	-1.413955	 7.826251	-3.827828	 0.340039	 3.995511	-1.015588	-0.259720	-4.361846	-1.024927	-121.337500	 8.370689	 94.506080	 20.592340	 43.477550	-2.208382	 27.768850	-1.381058	 0.257529	 9.681924	-44.233610	 5.867708	 4.746845	 19.257740	-1.720682	-5.862984	 21.823360	 2.412616	 5.346655	 4.694588	-0.162636	-0.185651	-5.090126	-0.065044	-1.814679	-2.444500	-3.180751	 118.293400	-0.572087	-90.564720	 20.803120	 52.685910	-20.579600	-19.264600	-0.743769	-0.067587	-6.931618	-25.865660	-17.314270	-2.005509	 22.690890	 1.113472	 15.082460	 41.755220	-10.616000	-8.535281	 20.676920	-1.009437
-0.042809	 1.221830	-1.393226	-3.607556	-0.330687	-172.630400	 166.582400	-0.197865	 14.215440	 3.831890	-26.757030	 7.384520	 21.581750	 80.639500	-12.740070	 1.621655	 32.582960	-2.864247	 177.688600	 41.592190	-6.428825	-3.927663	-42.331720	 9.548112	 36.226940	 71.481160	-24.093280	-1.715906	 33.700400	 2.910084	-1.401246	 7.490149	-4.338049	 0.380527	 4.298666	-1.249074	-0.291604	-4.594630	-1.071287	-121.330900	 8.767584	 94.703510	 24.809120	 40.511120	-4.484652	 28.639600	-1.420798	 0.278835	 9.167260	-47.197650	 4.921822	 4.798476	 19.425800	-1.748534	-5.862654	 21.971060	 2.428961	 5.352983	 4.843153	-0.159980	-0.192858	-5.123876	-0.031674	-1.691789	-2.616363	-3.197391	 118.239500	-0.806404	-90.455460	 24.491760	 52.255430	-22.775240	-19.309570	-0.745385	-0.068217	-8.307743	-27.734240	-19.094680	-1.831288	 21.306630	 1.029558	 14.796900	 40.399670	-10.136210	-8.533895	 19.288070	-0.919458
-0.041504	 1.216750	-1.441833	-3.707808	-0.837429	-172.187300	 167.146700	-2.954347	 14.448890	 3.562261	-25.115580	 7.716129	 27.735080	 81.412120	-18.532680	 1.653808	 32.970560	-2.880143	 174.896700	 42.153910	-3.433542	-2.764216	-32.674480	 11.128150	 36.575830	 69.113280	-22.506520	-1.729694	 33.862950	 2.917116	-1.388356	 7.162138	-4.840734	 0.417043	 4.480660	-1.383739	-0.329686	-4.768143	-1.213397	-121.325800	 9.155655	 94.896670	 29.224650	 37.542850	-6.683147	 27.416910	-1.364986	 0.249074	 10.123300	-50.154000	 3.999403	 4.849090	 19.590090	-1.775948	-5.862375	 22.115470	 2.444956	 5.359166	 4.988402	-0.157399	-0.199886	-5.156879	 0.000949	-1.571611	-2.784530	-3.213312	 118.187200	-1.035577	-90.348870	 26.825260	 51.970330	-23.897560	-18.243830	-0.705745	-0.054655	-10.028010	-29.343510	-20.882420	-1.664597	 19.953300	 0.952595	 14.537280	 39.072970	-9.684669	-8.530335	 17.930480	-0.832176
